<?xml version="1.0" encoding="UTF-8"?>
<svg id="ASU_Logo" xmlns="http://www.w3.org/2000/svg" version="1.1" viewBox="0 0 288 162">
  <!-- Generator: Adobe Illustrator 30.4.0, SVG Export Plug-In . SVG Version: 2.1.4 Build 226)  -->
  <defs>
    <style>
      .st0 {
        fill: #fdbe1e;
      }

      .st1 {
        fill: #750033;
      }
    </style>
  </defs>
  <path id="ASU" class="st1" d="M262.06,118.6s-1.69-1.88-4.5-4.91c-3.47-3.73-3.28-7.69-3.28-7.69V16.48s-33.88,0-33.88,0v71.6c-.42,6.78-7.04,8.5-10.7,8.38-5.25-.16-8.31-3.12-8.31-8.18V16.48s-33,0-33,0c0,0-13.78.02-23.25.02-18.06,0-35.11,2.78-40.87,17.81l-3.4-13.31c-.83-2.64-3.68-4.52-6.51-4.52h-58.98c-.86,0-1.18.28-.74.88,0,0,1.6,1.53,4.51,4.86,4.03,4.61,2.46,10.77,2.46,10.77l-21.61,86.47h31.45s4.52-18.98,4.52-18.98h30.36s4.72,18.98,4.72,18.98c0,0,38.72,0,41.4,0,17,0,30.82-1.73,37.63-12.34,5.09,9.68,16.07,14.22,35.42,12.55,6.74-.58,13.34-3.73,16.17-8.75l1.34,4.17c1.11,2.53,3.43,4.38,6.72,4.38h31.63c.86,0,1.14-.26.7-.86ZM60.69,81.71l10.47-42.28,10.51,42.28h-20.97ZM263.06,24.45c-2.1,0-3.81-1.67-3.81-3.8s1.67-3.8,3.82-3.8,3.81,1.74,3.79,3.82c-.01,2.11-1.65,3.79-3.8,3.79ZM263.05,16.34c-2.32,0-4.29,1.83-4.29,4.31s2.06,4.31,4.29,4.31c2.43,0,4.31-1.9,4.32-4.28.01-2.36-1.81-4.33-4.32-4.33ZM261.46,18.21h1.52c.64,0,1.06,0,1.48.35.3.24.53.62.53,1.18,0,.91-.67,1.23-.94,1.31l1.06,1.94h-1.02s-.95-1.77-.95-1.77h-.8v1.77s-.89,0-.89,0v-4.78ZM262.35,18.98v1.5h.31c.3,0,.42,0,.59-.01.2,0,.84-.04.84-.74,0-.1,0-.45-.38-.64-.19-.09-.42-.1-.95-.1h-.41Z"/>
  <path id="Sunburst" class="st0" d="M103.42,38.36c-.19.93-.41,2.17-.55,3.05l-5.9-5.48c-.57-.53.11-1.43.77-1.03l5.67,3.45ZM102.6,46.43c0,1.27.06,2.98.19,4.28l-11.43-7.44c-.64-.42-.13-1.4.58-1.12l10.65,4.28ZM87.25,51.36c-.69-.3-.35-1.34.38-1.17l15.67,3.53c.41,1.88,1.14,3.95,1.93,5.5l-17.99-7.86ZM85,58.78c-.75-.05-.92,1.03-.19,1.21l20.79,5.33c.17.04.15.3-.02.32l-21.58,2.01c-.74.07-.74,1.15,0,1.22l21.53,2.01c.19.02.21.29.03.33l-20.75,5.32c-.73.19-.56,1.26.19,1.21l21.58-1.38c.19-.01.25.25.08.32l-19.41,8.48c-.69.3-.35,1.34.38,1.17l20.97-4.73c.2-.04.31.22.14.33l-17.38,11.31c-.64.42-.13,1.4.58,1.12l19.75-7.93c.19-.08.34.17.19.3l-14.93,13.85c-.57.53.11,1.42.77,1.02l17.87-10.87c.19-.11.39.11.26.29l-11.96,15.89c-.48.63.36,1.41.96.89l15.43-13.43c.17-.15.43.05.33.25l-8.69,17.48c-.36.72.62,1.34,1.12.72l12.69-15.73s3.61,1.78,7.04,2.1c6.09.58,11.62-.76,14.66-3.52,1.57-1.43,2.37-3.17,2.37-5.14,0-7.37-8.22-10.21-17.78-13.5-9.82-3.41-21-7.27-26.3-16.95l-20.72-1.33ZM172.08,103.57s.71-1.74,1.08-2.96l4.76,6.33c.47.63-.36,1.41-.96.89l-4.89-4.26ZM174.27,95.65s.39-2.87.47-4.44l10.11,9.38c.57.53-.11,1.42-.77,1.02l-9.81-5.96ZM174.85,88.33s.04-3.5-.36-5.47l15.93,10.37c.64.42.13,1.41-.58,1.12l-14.99-6.02ZM194.18,86.33c.73.17,1.07-.87.38-1.17l-19.41-8.48c-.17-.08-.11-.34.08-.32l21.55,1.38c.75.05.92-1.03.19-1.22l-20.72-5.31c-.18-.05-.16-.31.03-.33l21.5-2c.74-.07.74-1.15,0-1.22l-21.5-2c-.19-.02-.21-.29-.03-.33l20.72-5.31c.73-.19.56-1.27-.19-1.22l-21.55,1.38c-.19.01-.25-.25-.08-.32l19.41-8.48c.69-.3.35-1.34-.38-1.17l-21.05,4.74c-.18.04-.29-.2-.13-.31l17.42-11.34c.64-.42.13-1.41-.58-1.12l-19.79,7.95c-.17.07-.32-.15-.18-.28l14.94-13.87c.57-.53-.11-1.44-.78-1.03l-17.95,10.91c-.16.1-.34-.1-.22-.25l12.07-16.03c.47-.63-.36-1.41-.96-.89l-15.61,13.59c-.14.12-.34-.04-.26-.2l8.79-17.67c.36-.72-.62-1.34-1.12-.72l-12.92,15.98s-6.48-2.75-12.6-2.8c-5.7-.05-9.91.97-12.23,3.24-1.34,1.32-2.02,3.01-2.02,5.05,0,2.78,1.57,5.07,4.93,7.2,3.01,1.88,7.18,3.48,11.6,5.15,5.76,2.2,12.32,4.67,17.69,8.38,10.28,7.09,11.09,15.98,11.09,15.98h0l19.86,4.48Z"/>
  <g id="Text_Outlines">
    <path class="st0" d="M20.46,144.19c0-.91.15-1.71.45-2.41s.73-1.24,1.29-1.61,1.21-.57,1.95-.57c.94,0,1.67.32,2.19.95l.1-.78h2.54v8.64c0,.79-.18,1.48-.55,2.06-.37.58-.9,1.03-1.6,1.34s-1.51.47-2.42.47c-.66,0-1.3-.12-1.91-.37-.62-.25-1.09-.57-1.42-.97l1.17-1.64c.52.61,1.21.92,2.06.92,1.24,0,1.86-.64,1.86-1.91v-.28c-.54.59-1.21.89-2.03.89-1.1,0-1.98-.42-2.66-1.26-.68-.84-1.01-1.96-1.01-3.37v-.1ZM23.26,144.37c0,.74.14,1.32.42,1.75s.66.64,1.16.64c.6,0,1.04-.2,1.32-.61v-3.78c-.27-.41-.71-.61-1.3-.61-.5,0-.89.22-1.17.67s-.42,1.09-.42,1.94Z"/>
    <path class="st0" d="M36,142.3l-.92-.07c-.88,0-1.44.28-1.69.83v5.69h-2.8v-8.98h2.62l.09,1.15c.47-.88,1.13-1.32,1.97-1.32.3,0,.56.03.78.1l-.05,2.6Z"/>
    <path class="st0" d="M41.82,148.75c-.1-.18-.19-.45-.27-.8-.51.65-1.23.97-2.16.97-.85,0-1.57-.26-2.16-.77s-.89-1.16-.89-1.93c0-.97.36-1.71,1.08-2.21s1.77-.75,3.14-.75h.86v-.48c0-.83-.36-1.24-1.07-1.24-.66,0-1,.33-1,.98h-2.8c0-.87.37-1.57,1.11-2.11.74-.54,1.68-.81,2.83-.81s2.05.28,2.71.84c.66.56,1,1.33,1.02,2.3v3.98c.01.82.14,1.46.38,1.89v.14h-2.8ZM40.06,146.92c.35,0,.64-.07.87-.22.23-.15.39-.32.49-.51v-1.44h-.81c-.97,0-1.46.44-1.46,1.31,0,.25.09.46.26.62.17.16.39.24.66.24Z"/>
    <path class="st0" d="M54.12,144.33c0,1.39-.31,2.51-.94,3.34-.63.83-1.48,1.25-2.54,1.25-.82,0-1.5-.3-2.03-.9v4.19h-2.8v-12.43h2.61l.08.83c.54-.66,1.24-1,2.12-1,1.11,0,1.97.41,2.58,1.22s.92,1.94.92,3.37v.13ZM51.32,144.15c0-1.59-.46-2.39-1.39-2.39-.66,0-1.11.24-1.33.71v3.54c.24.5.69.75,1.34.75.89,0,1.35-.77,1.38-2.31v-.3Z"/>
    <path class="st0" d="M58.09,140.73c.6-.75,1.36-1.13,2.29-1.13.99,0,1.74.29,2.24.88s.76,1.45.77,2.6v5.67h-2.81v-5.6c0-.48-.1-.83-.29-1.05-.19-.22-.52-.34-.99-.34-.58,0-.98.18-1.22.55v6.44h-2.8v-12.75h2.8v4.73Z"/>
    <path class="st0" d="M64.93,137.45c0-.4.14-.73.43-.98.29-.25.66-.38,1.12-.38s.83.13,1.12.38c.29.25.43.58.43.98s-.14.72-.43.98c-.29.25-.66.38-1.12.38s-.83-.13-1.12-.38c-.29-.25-.43-.58-.43-.98ZM67.9,148.75h-2.81v-8.98h2.81v8.98Z"/>
    <path class="st0" d="M73.42,146.76c.39,0,.7-.11.91-.32s.32-.51.32-.89h2.62c0,.99-.35,1.79-1.06,2.42-.71.63-1.61.95-2.73.95-1.31,0-2.34-.41-3.09-1.23s-1.13-1.95-1.13-3.4v-.12c0-.91.17-1.71.5-2.4.33-.69.82-1.23,1.45-1.6.63-.37,1.38-.56,2.24-.56,1.17,0,2.09.32,2.78.97.69.65,1.03,1.52,1.03,2.63h-2.62c0-.46-.11-.82-.34-1.07-.23-.25-.53-.37-.91-.37-.73,0-1.15.46-1.27,1.39-.04.29-.06.7-.06,1.21,0,.9.11,1.53.32,1.88.22.35.56.52,1.03.52Z"/>
    <path class="st0" d="M82.66,137.45c0-.4.14-.73.43-.98.29-.25.66-.38,1.12-.38s.83.13,1.12.38c.29.25.43.58.43.98s-.14.72-.43.98c-.29.25-.66.38-1.12.38s-.83-.13-1.12-.38c-.29-.25-.43-.58-.43-.98ZM85.64,148.75h-2.81v-8.98h2.81v8.98Z"/>
    <path class="st0" d="M89.93,139.77l.09,1.05c.62-.81,1.47-1.22,2.56-1.22.94,0,1.63.28,2.1.84.46.56.7,1.4.72,2.52v5.79h-2.81v-5.67c0-.45-.09-.79-.27-1s-.51-.32-1-.32c-.55,0-.95.22-1.22.65v6.34h-2.8v-8.98h2.62Z"/>
    <path class="st0" d="M97.56,148.75v-7.04h-1.3v-1.94h1.3v-.71c0-1.02.3-1.82.9-2.38s1.45-.85,2.54-.85c.4,0,.84.06,1.31.17v2.06c-.16-.05-.39-.07-.68-.07-.85,0-1.27.37-1.27,1.1v.69h1.75v1.94h-1.75v7.04h-2.81Z"/>
    <path class="st0" d="M102.75,144.18c0-.9.17-1.69.52-2.39s.85-1.24,1.5-1.61,1.42-.56,2.3-.56c1.34,0,2.4.42,3.18,1.25s1.16,1.97,1.16,3.4v.1c0,1.4-.39,2.51-1.17,3.33-.78.82-1.83,1.23-3.16,1.23s-2.3-.38-3.08-1.15-1.19-1.81-1.25-3.12v-.47ZM105.55,144.35c0,.83.13,1.44.39,1.83s.64.58,1.15.58c1,0,1.51-.77,1.53-2.3v-.28c0-1.61-.51-2.42-1.54-2.42-.94,0-1.44.69-1.52,2.08v.51Z"/>
    <path class="st0" d="M118.08,142.3l-.92-.07c-.88,0-1.44.28-1.69.83v5.69h-2.8v-8.98h2.62l.09,1.15c.47-.88,1.13-1.32,1.97-1.32.3,0,.56.03.78.1l-.05,2.6Z"/>
    <path class="st0" d="M121.74,139.77l.09,1.05c.64-.81,1.49-1.22,2.56-1.22,1.13,0,1.9.45,2.3,1.35.61-.9,1.49-1.35,2.64-1.35,1.82,0,2.76,1.1,2.81,3.3v5.84h-2.81v-5.67c0-.46-.08-.79-.23-1s-.44-.32-.85-.32c-.55,0-.97.25-1.24.74v.12s0,6.13,0,6.13h-2.81v-5.65c0-.47-.07-.81-.22-1.02s-.43-.32-.85-.32c-.54,0-.95.25-1.23.74v6.25h-2.8v-8.98h2.62Z"/>
    <path class="st0" d="M138.79,148.75c-.1-.18-.19-.45-.27-.8-.51.65-1.23.97-2.16.97-.85,0-1.57-.26-2.16-.77s-.89-1.16-.89-1.93c0-.97.36-1.71,1.08-2.21s1.77-.75,3.14-.75h.86v-.48c0-.83-.36-1.24-1.07-1.24-.66,0-1,.33-1,.98h-2.8c0-.87.37-1.57,1.11-2.11.74-.54,1.68-.81,2.83-.81s2.05.28,2.71.84c.66.56,1,1.33,1.02,2.3v3.98c.01.82.14,1.46.38,1.89v.14h-2.8ZM137.04,146.92c.35,0,.64-.07.87-.22.23-.15.39-.32.49-.51v-1.44h-.81c-.97,0-1.46.44-1.46,1.31,0,.25.09.46.26.62.17.16.39.24.66.24Z"/>
    <path class="st0" d="M146.02,137.54v2.23h1.48v1.94h-1.48v4.11c0,.34.06.57.18.71.12.13.36.2.72.2.28,0,.51-.02.7-.05v2c-.5.16-1.03.24-1.58.24-.96,0-1.67-.23-2.13-.68s-.69-1.14-.69-2.07v-4.46h-1.15v-1.94h1.15v-2.23h2.8Z"/>
    <path class="st0" d="M148.57,137.45c0-.4.14-.73.43-.98.29-.25.66-.38,1.12-.38s.83.13,1.12.38c.29.25.43.58.43.98s-.14.72-.43.98c-.29.25-.66.38-1.12.38s-.83-.13-1.12-.38c-.29-.25-.43-.58-.43-.98ZM151.54,148.75h-2.81v-8.98h2.81v8.98Z"/>
    <path class="st0" d="M152.92,144.18c0-.9.17-1.69.52-2.39.35-.7.85-1.24,1.5-1.61s1.42-.56,2.3-.56c1.35,0,2.41.42,3.18,1.25s1.16,1.97,1.16,3.4v.1c0,1.4-.39,2.51-1.17,3.33-.78.82-1.83,1.23-3.16,1.23s-2.31-.38-3.08-1.15-1.19-1.81-1.25-3.12v-.47ZM155.71,144.35c0,.83.13,1.44.39,1.83s.64.58,1.15.58c1,0,1.5-.77,1.53-2.3v-.28c0-1.61-.52-2.42-1.54-2.42-.93,0-1.44.69-1.52,2.08v.51Z"/>
    <path class="st0" d="M165.38,139.77l.09,1.05c.62-.81,1.47-1.22,2.56-1.22.94,0,1.63.28,2.1.84.46.56.7,1.4.72,2.52v5.79h-2.81v-5.67c0-.45-.09-.79-.27-1s-.51-.32-1-.32c-.55,0-.96.22-1.22.65v6.34h-2.8v-8.98h2.62Z"/>
    <path class="st0" d="M179.89,137.54v2.23h1.48v1.94h-1.48v4.11c0,.34.06.57.18.71.12.13.36.2.72.2.28,0,.51-.02.7-.05v2c-.5.16-1.03.24-1.58.24-.96,0-1.67-.23-2.13-.68-.46-.45-.69-1.14-.69-2.07v-4.46h-1.15v-1.94h1.15v-2.23h2.8Z"/>
    <path class="st0" d="M186.81,148.92c-1.38,0-2.49-.41-3.34-1.23-.85-.82-1.28-1.89-1.28-3.21v-.23c0-.92.17-1.73.51-2.43.34-.7.84-1.25,1.49-1.63s1.43-.58,2.32-.58c1.26,0,2.26.39,2.99,1.17s1.1,1.87,1.1,3.27v1.09h-5.56c.1.5.32.9.66,1.19.34.29.77.43,1.31.43.89,0,1.58-.31,2.08-.93l1.28,1.51c-.35.48-.84.86-1.48,1.15-.64.29-1.33.43-2.06.43ZM186.5,141.76c-.82,0-1.31.54-1.46,1.63h2.82v-.22c.01-.45-.1-.8-.34-1.04-.24-.25-.58-.37-1.02-.37Z"/>
    <path class="st0" d="M195.52,146.76c.39,0,.7-.11.91-.32s.32-.51.32-.89h2.62c0,.99-.35,1.79-1.06,2.42-.71.63-1.61.95-2.73.95-1.31,0-2.33-.41-3.09-1.23s-1.13-1.95-1.13-3.4v-.12c0-.91.17-1.71.5-2.4s.82-1.23,1.45-1.6c.63-.37,1.38-.56,2.24-.56,1.17,0,2.09.32,2.78.97.69.65,1.03,1.52,1.03,2.63h-2.62c0-.46-.11-.82-.34-1.07-.23-.25-.53-.37-.91-.37-.72,0-1.15.46-1.27,1.39-.04.29-.06.7-.06,1.21,0,.9.11,1.53.32,1.88.22.35.56.52,1.03.52Z"/>
    <path class="st0" d="M203.29,140.73c.6-.75,1.36-1.13,2.29-1.13.99,0,1.74.29,2.24.88s.76,1.45.77,2.6v5.67h-2.81v-5.6c0-.48-.1-.83-.29-1.05-.19-.22-.52-.34-.99-.34-.58,0-.98.18-1.22.55v6.44h-2.8v-12.75h2.8v4.73Z"/>
    <path class="st0" d="M212.72,139.77l.09,1.05c.62-.81,1.47-1.22,2.56-1.22.94,0,1.63.28,2.1.84.46.56.7,1.4.72,2.52v5.79h-2.81v-5.67c0-.45-.09-.79-.27-1s-.51-.32-1-.32c-.55,0-.96.22-1.22.65v6.34h-2.8v-8.98h2.62Z"/>
    <path class="st0" d="M219.39,144.18c0-.9.17-1.69.52-2.39.35-.7.85-1.24,1.5-1.61s1.42-.56,2.3-.56c1.35,0,2.41.42,3.18,1.25s1.16,1.97,1.16,3.4v.1c0,1.4-.39,2.51-1.17,3.33-.78.82-1.83,1.23-3.16,1.23s-2.31-.38-3.08-1.15-1.19-1.81-1.25-3.12v-.47ZM222.18,144.35c0,.83.13,1.44.39,1.83s.64.58,1.15.58c1,0,1.5-.77,1.53-2.3v-.28c0-1.61-.52-2.42-1.54-2.42-.93,0-1.44.69-1.52,2.08v.51Z"/>
    <path class="st0" d="M232.24,148.75h-2.81v-12.75h2.81v12.75Z"/>
    <path class="st0" d="M233.61,144.18c0-.9.17-1.69.52-2.39.35-.7.85-1.24,1.5-1.61s1.42-.56,2.3-.56c1.35,0,2.41.42,3.18,1.25s1.16,1.97,1.16,3.4v.1c0,1.4-.39,2.51-1.17,3.33-.78.82-1.83,1.23-3.16,1.23s-2.31-.38-3.08-1.15-1.19-1.81-1.25-3.12v-.47ZM236.4,144.35c0,.83.13,1.44.39,1.83s.64.58,1.15.58c1,0,1.5-.77,1.53-2.3v-.28c0-1.61-.52-2.42-1.54-2.42-.93,0-1.44.69-1.52,2.08v.51Z"/>
    <path class="st0" d="M243.18,144.19c0-.91.15-1.71.45-2.41s.73-1.24,1.29-1.61,1.21-.57,1.95-.57c.93,0,1.67.32,2.19.95l.1-.78h2.54v8.64c0,.79-.18,1.48-.55,2.06s-.9,1.03-1.6,1.34-1.5.47-2.42.47c-.66,0-1.3-.12-1.91-.37-.62-.25-1.09-.57-1.42-.97l1.17-1.64c.52.61,1.21.92,2.06.92,1.24,0,1.86-.64,1.86-1.91v-.28c-.54.59-1.21.89-2.03.89-1.1,0-1.98-.42-2.66-1.26-.67-.84-1.01-1.96-1.01-3.37v-.1ZM245.98,144.37c0,.74.14,1.32.42,1.75.28.43.66.64,1.16.64.6,0,1.04-.2,1.32-.61v-3.78c-.27-.41-.71-.61-1.3-.61-.5,0-.89.22-1.17.67s-.42,1.09-.42,1.94Z"/>
    <path class="st0" d="M256.87,144.83l1.49-5.06h3l-3.66,10.48-.16.38c-.52,1.16-1.44,1.74-2.76,1.74-.37,0-.75-.05-1.15-.17v-1.99h.37c.39,0,.69-.06.9-.17.21-.11.36-.32.46-.61l.22-.6-3.12-9.07h2.99l1.42,5.06Z"/>
  </g>
</svg>