<?xml version="1.0" encoding="UTF-8"?>
<svg xmlns="http://www.w3.org/2000/svg" xmlns:xlink="http://www.w3.org/1999/xlink" version="1.1" viewBox="0 0 1920 849.41">
  <!-- Generator: Adobe Illustrator 30.4.0, SVG Export Plug-In . SVG Version: 2.1.4 Build 226)  -->
  <defs>
    <style>
      .st0 {
        fill: #0f0f0f;
      }

      .st1, .st2 {
        fill: none;
      }

      .st3 {
        fill: #010101;
      }

      .st4 {
        fill: #f2af75;
        stroke: #b16f1b;
        stroke-linejoin: bevel;
        stroke-width: .3px;
      }

      .st5 {
        fill: #f9ad00;
      }

      .st6 {
        fill: #fff;
      }

      .st7 {
        fill: #1a1818;
        font-family: MyriadPro-Bold, 'Myriad Pro';
        font-size: 60px;
        font-weight: 700;
      }

      .st8 {
        fill: #e1001b;
      }

      .st9 {
        fill: url(#Knit_Color);
      }

      .st2 {
        stroke: #0f0f0f;
        stroke-miterlimit: 10;
      }

      .st10 {
        fill: url(#Bus_Gradient);
      }
    </style>
    <linearGradient id="Bus_Gradient" data-name="Bus Gradient" x1="-139.91" y1="-210.33" x2="1966.31" y2="1005.7" gradientUnits="userSpaceOnUse">
      <stop offset=".01" stop-color="#b5a688"/>
      <stop offset=".32" stop-color="#5f9ebc"/>
      <stop offset=".5" stop-color="#2c9adc"/>
      <stop offset=".89" stop-color="#94a39b"/>
      <stop offset="1" stop-color="#b5a688"/>
    </linearGradient>
    <pattern id="Knit_Color" data-name="Knit Color" x="0" y="0" width="75.75" height="75.56" patternTransform="translate(0 -66.94)" patternUnits="userSpaceOnUse" viewBox="0 0 75.75 75.56">
      <g>
        <rect class="st1" width="75.75" height="75.56"/>
        <path class="st4" d="M69.65,92.9c.4-2,2.63-4.75,6.11-4.75s5.71-2.73,6.1-4.73c.48-1.75-.27-3.62,1.89-7.89.1.54,2.63,3.77,4.82,4.73-.14.08-.17,1.17-.17,1.85-.5,10.31-11.24,15.05-18.75,10.79Z"/>
        <g>
          <path class="st4" d="M50.69,70.81c.4,2,2.63,4.75,6.11,4.75s5.71,2.73,6.1,4.74c.48,1.75-.27,3.62,1.89,7.89.34-.71,2.2-3.31,4.82-4.73-.14-.08-.17-1.17-.17-1.86-.5-10.31-11.24-15.05-18.75-10.79Z"/>
          <path class="st4" d="M12.81,70.81c.4,2,2.63,4.75,6.11,4.75s5.71,2.73,6.1,4.74c.48,1.75-.27,3.62,1.89,7.89.33-.71,2.15-3.27,4.81-4.73-.14-.08-.17-1.17-.17-1.86-.5-10.31-11.24-15.05-18.75-10.79Z"/>
          <path class="st4" d="M69.65,92.9c.4-2,2.63-4.75,6.11-4.75s5.71-2.73,6.11-4.73c.48-1.75-.27-3.62,1.89-7.89.11.54,2.63,3.77,4.82,4.73-.14.08-.17,1.17-.17,1.85-.5,10.31-11.24,15.05-18.75,10.79Z"/>
          <path class="st4" d="M31.77,92.9c.4-2,2.63-4.75,6.11-4.75s5.71-2.73,6.1-4.73c.48-1.75-.27-3.62,1.89-7.89.1.54,2.63,3.77,4.81,4.73-.14.08-.17,1.17-.17,1.85-.5,10.31-11.24,15.05-18.76,10.79Z"/>
          <path class="st4" d="M-6.11,92.9c.4-2,2.63-4.75,6.11-4.75s5.71-2.73,6.1-4.73c.48-1.75-.27-3.62,1.89-7.89.1.54,2.63,3.77,4.82,4.73-.14.08-.17,1.17-.17,1.85-.5,10.31-11.24,15.05-18.75,10.79Z"/>
          <path class="st4" d="M62.9,80.29c-.4-2-2.63-4.75-6.11-4.75s-5.71-2.73-6.11-4.74c-.48-1.75.27-3.62-1.89-7.89-.1.54-2.72,3.87-4.81,4.73.14.08.17,1.17.17,1.86.5,10.31,11.24,15.05,18.75,10.79Z"/>
          <path class="st4" d="M25.03,80.29c-.4-2-2.63-4.75-6.11-4.75s-5.71-2.73-6.1-4.74c-.48-1.75.27-3.62-1.89-7.89-.1.54-2.73,3.87-4.82,4.73.14.08.17,1.17.17,1.86.5,10.31,11.24,15.05,18.75,10.79Z"/>
        </g>
        <path class="st4" d="M-6.11,92.9c.4-2,2.63-4.75,6.11-4.75s5.71-2.73,6.11-4.73c.48-1.75-.27-3.62,1.89-7.89.11.54,2.63,3.77,4.82,4.73-.14.08-.17,1.17-.17,1.85-.5,10.31-11.24,15.05-18.75,10.79Z"/>
        <g>
          <path class="st4" d="M69.65,42.52c.4-2,2.63-4.75,6.11-4.75s5.71-2.73,6.1-4.74c.48-1.75-.27-3.62,1.89-7.89.1.54,2.63,3.77,4.82,4.73-.14.08-.17,1.17-.17,1.85-.5,10.31-11.24,15.05-18.75,10.79Z"/>
          <path class="st4" d="M69.65,67.71c.4-2,2.63-4.75,6.11-4.75s5.71-2.73,6.1-4.73c.48-1.75-.27-3.62,1.89-7.89.1.54,2.63,3.77,4.82,4.73-.14.08-.17,1.17-.17,1.85-.5,10.31-11.24,15.05-18.75,10.79Z"/>
          <path class="st4" d="M69.65,17.34c.4-2,2.63-4.75,6.11-4.75s5.71-2.73,6.1-4.73c.48-1.75-.27-3.62,1.89-7.89.1.54,2.63,3.77,4.82,4.73-.14.08-.17,1.17-.17,1.85-.5,10.31-11.24,15.05-18.75,10.79Z"/>
          <path class="st4" d="M81.86,33.04c-.4,2-2.63,4.75-6.11,4.75s-5.71,2.73-6.1,4.74c-.48,1.75.27,3.62-1.89,7.89-.1-.54-2.71-3.83-4.82-4.73.14-.08.17-1.17.17-1.85.5-10.31,11.24-15.05,18.75-10.79Z"/>
          <path class="st4" d="M81.86,58.23c-.4,2-2.63,4.75-6.11,4.75s-5.71,2.73-6.1,4.73c-.48,1.75.27,3.62-1.89,7.89-.1-.54-2.71-3.83-4.82-4.73.14-.08.17-1.17.17-1.85.5-10.31,11.24-15.05,18.75-10.79Z"/>
          <path class="st4" d="M81.86,7.85c-.4,2-2.63,4.75-6.11,4.75s-5.71,2.73-6.1,4.74c-.48,1.75.27,3.62-1.89,7.89-.1-.54-2.71-3.83-4.82-4.73.14-.08.17-1.17.17-1.85.5-10.31,11.24-15.05,18.75-10.79Z"/>
        </g>
        <g>
          <path class="st4" d="M50.69,20.44c.4,2,2.63,4.75,6.11,4.75s5.71,2.73,6.1,4.74c.48,1.75-.27,3.62,1.89,7.89.45-.94,2.15-3.27,4.82-4.73-.14-.08-.17-1.17-.17-1.86-.5-10.31-11.24-15.05-18.75-10.79Z"/>
          <path class="st4" d="M12.81,20.44c.4,2,2.63,4.75,6.11,4.75s5.71,2.73,6.1,4.74c.48,1.75-.27,3.62,1.89,7.89.33-.71,2.15-3.27,4.81-4.73-.14-.08-.17-1.17-.17-1.86-.5-10.31-11.24-15.05-18.75-10.79Z"/>
          <path class="st4" d="M69.65,42.52c.4-2,2.63-4.75,6.11-4.75s5.71-2.73,6.11-4.74c.48-1.75-.27-3.62,1.89-7.89.11.54,2.63,3.77,4.82,4.73-.14.08-.17,1.17-.17,1.85-.5,10.31-11.24,15.05-18.75,10.79Z"/>
          <path class="st4" d="M31.77,42.52c.4-2,2.63-4.75,6.11-4.75s5.71-2.73,6.1-4.74c.48-1.75-.27-3.62,1.89-7.89.1.54,2.63,3.77,4.81,4.73-.14.08-.17,1.17-.17,1.85-.5,10.31-11.24,15.05-18.76,10.79Z"/>
          <path class="st4" d="M50.69,45.62c.4,2,2.63,4.75,6.11,4.75s5.71,2.73,6.1,4.74c.48,1.75-.27,3.62,1.89,7.89.52-.87,2.15-3.27,4.82-4.73-.14-.08-.17-1.17-.17-1.85-.5-10.31-11.24-15.05-18.75-10.79Z"/>
          <path class="st4" d="M-6.11,42.52c.4-2,2.63-4.75,6.11-4.75s5.71-2.73,6.1-4.74c.48-1.75-.27-3.62,1.89-7.89.1.54,2.63,3.77,4.82,4.73-.14.08-.17,1.17-.17,1.85-.5,10.31-11.24,15.05-18.75,10.79Z"/>
          <path class="st4" d="M12.81,45.62c.4,2,2.63,4.75,6.11,4.75s5.71,2.73,6.1,4.74c.48,1.75-.27,3.62,1.89,7.89.33-.71,2.15-3.27,4.81-4.73-.14-.08-.17-1.17-.17-1.85-.5-10.31-11.24-15.05-18.75-10.79Z"/>
          <path class="st4" d="M69.65,67.71c.4-2,2.63-4.75,6.11-4.75s5.71-2.73,6.11-4.73c.48-1.75-.27-3.62,1.89-7.89.11.54,2.63,3.77,4.82,4.73-.14.08-.17,1.17-.17,1.85-.5,10.31-11.24,15.05-18.75,10.79Z"/>
          <path class="st4" d="M31.77,67.71c.4-2,2.63-4.75,6.11-4.75s5.71-2.73,6.1-4.73c.48-1.75-.27-3.62,1.89-7.89.1.54,2.63,3.77,4.81,4.73-.14.08-.17,1.17-.17,1.85-.5,10.31-11.24,15.05-18.76,10.79Z"/>
          <path class="st4" d="M50.69,70.81c.4,2,2.63,4.75,6.11,4.75s5.71,2.73,6.1,4.73c.48,1.75-.27,3.62,1.89,7.89.34-.71,2.15-3.27,4.82-4.73-.14-.08-.17-1.17-.17-1.85-.5-10.31-11.24-15.05-18.75-10.79Z"/>
          <path class="st4" d="M-6.11,67.71c.4-2,2.63-4.75,6.11-4.75s5.71-2.73,6.1-4.73c.48-1.75-.27-3.62,1.89-7.89.1.54,2.63,3.77,4.82,4.73-.14.08-.17,1.17-.17,1.85-.5,10.31-11.24,15.05-18.75,10.79Z"/>
          <path class="st4" d="M12.81,70.81c.4,2,2.63,4.75,6.11,4.75s5.71,2.73,6.1,4.73c.48,1.75-.27,3.62,1.89,7.89.33-.71,2.15-3.27,4.81-4.73-.14-.08-.17-1.17-.17-1.85-.5-10.31-11.24-15.05-18.75-10.79Z"/>
          <path class="st4" d="M50.69-4.75C51.09-2.75,53.32,0,56.8,0s5.71,2.73,6.1,4.74c.48,1.75-.27,3.62,1.89,7.89.34-.71,2.2-3.31,4.82-4.73-.14-.08-.17-1.17-.17-1.86-.5-10.31-11.24-15.05-18.75-10.79Z"/>
          <path class="st4" d="M12.81-4.75C13.21-2.75,15.44,0,18.92,0s5.71,2.73,6.1,4.74c.48,1.75-.27,3.62,1.89,7.89.33-.71,2.15-3.27,4.81-4.73-.14-.08-.17-1.17-.17-1.86-.5-10.31-11.24-15.05-18.75-10.79Z"/>
          <path class="st4" d="M69.65,17.34c.4-2,2.63-4.75,6.11-4.75s5.71-2.73,6.11-4.73c.48-1.75-.27-3.62,1.89-7.89.11.54,2.63,3.77,4.82,4.73-.14.08-.17,1.17-.17,1.85-.5,10.31-11.24,15.05-18.75,10.79Z"/>
          <path class="st4" d="M31.77,17.34c.4-2,2.63-4.75,6.11-4.75s5.71-2.73,6.1-4.73c.48-1.75-.27-3.62,1.89-7.89.1.54,2.63,3.77,4.81,4.73-.14.08-.17,1.17-.17,1.85-.5,10.31-11.24,15.05-18.76,10.79Z"/>
          <path class="st4" d="M-6.11,17.34C-5.71,15.33-3.48,12.59,0,12.59s5.71-2.73,6.1-4.73c.48-1.75-.27-3.62,1.89-7.89.1.54,2.63,3.77,4.82,4.73-.14.08-.17,1.17-.17,1.85-.5,10.31-11.24,15.05-18.75,10.79Z"/>
          <path class="st4" d="M81.86,33.04c-.4,2-2.63,4.75-6.11,4.75s-5.71,2.73-6.1,4.74c-.48,1.75.27,3.62-1.89,7.89-.1-.54-2.71-3.83-4.81-4.73.14-.08.17-1.17.17-1.85.5-10.31,11.24-15.05,18.76-10.79Z"/>
          <path class="st4" d="M43.98,33.04c-.4,2-2.63,4.75-6.11,4.75s-5.71,2.73-6.1,4.74c-.48,1.75.27,3.62-1.89,7.89-.1-.54-2.71-3.83-4.82-4.73.14-.08.17-1.17.17-1.85.5-10.31,11.24-15.05,18.75-10.79Z"/>
          <path class="st4" d="M62.9,55.1c-.4-2-2.63-4.75-6.11-4.75s-5.71-2.73-6.11-4.74c-.48-1.75.27-3.62-1.89-7.89-.1.54-2.42,3.65-4.81,4.73.14.08.17,1.17.17,1.85.5,10.31,11.24,15.05,18.75,10.79Z"/>
          <path class="st4" d="M6.11,33.04c-.4,2-2.63,4.75-6.11,4.75s-5.71,2.73-6.1,4.74c-.48,1.75.27,3.62-1.89,7.89-.1-.54-2.71-3.83-4.82-4.73.14-.08.17-1.17.17-1.85.5-10.31,11.24-15.05,18.75-10.79Z"/>
          <path class="st4" d="M25.03,55.1c-.4-2-2.63-4.75-6.11-4.75s-5.71-2.73-6.1-4.74c-.48-1.75.27-3.62-1.89-7.89-.1.54-2.48,3.71-4.82,4.73.14.08.17,1.17.17,1.85.5,10.31,11.24,15.05,18.75,10.79Z"/>
          <path class="st4" d="M81.86,58.23c-.4,2-2.63,4.75-6.11,4.75s-5.71,2.73-6.1,4.73c-.48,1.75.27,3.62-1.89,7.89-.1-.54-2.71-3.83-4.81-4.73.14-.08.17-1.17.17-1.85.5-10.31,11.24-15.05,18.76-10.79Z"/>
          <path class="st4" d="M43.98,58.23c-.4,2-2.63,4.75-6.11,4.75s-5.71,2.73-6.1,4.73c-.48,1.75.27,3.62-1.89,7.89-.1-.54-2.71-3.83-4.82-4.73.14-.08.17-1.17.17-1.85.5-10.31,11.24-15.05,18.75-10.79Z"/>
          <path class="st4" d="M62.9,80.29c-.4-2-2.63-4.75-6.11-4.75s-5.71-2.73-6.11-4.74c-.48-1.75.27-3.62-1.89-7.89-.1.54-2.61,3.83-4.81,4.73.14.08.17,1.17.17,1.85.5,10.31,11.24,15.05,18.75,10.79Z"/>
          <path class="st4" d="M6.11,58.23c-.4,2-2.63,4.75-6.11,4.75s-5.71,2.73-6.1,4.73c-.48,1.75.27,3.62-1.89,7.89-.1-.54-2.71-3.83-4.82-4.73.14-.08.17-1.17.17-1.85.5-10.31,11.24-15.05,18.75-10.79Z"/>
          <path class="st4" d="M25.03,80.29c-.4-2-2.63-4.75-6.11-4.75s-5.71-2.73-6.1-4.74c-.48-1.75.27-3.62-1.89-7.89-.1.54-2.54,3.71-4.82,4.73.14.08.17,1.17.17,1.85.5,10.31,11.24,15.05,18.75,10.79Z"/>
          <path class="st4" d="M62.9,4.73C62.5,2.73,60.27-.02,56.79-.02s-5.71-2.73-6.11-4.74c-.48-1.75.27-3.62-1.89-7.89-.1.54-2.72,3.87-4.81,4.73.14.08.17,1.17.17,1.86.5,10.31,11.24,15.05,18.75,10.79Z"/>
          <path class="st4" d="M25.03,4.73C24.63,2.73,22.4-.02,18.91-.02s-5.71-2.73-6.1-4.74c-.48-1.75.27-3.62-1.89-7.89-.1.54-2.73,3.87-4.82,4.73.14.08.17,1.17.17,1.86.5,10.31,11.24,15.05,18.75,10.79Z"/>
          <path class="st4" d="M81.86,7.85c-.4,2-2.63,4.75-6.11,4.75s-5.71,2.73-6.1,4.74c-.48,1.75.27,3.62-1.89,7.89-.1-.54-2.71-3.83-4.81-4.73.14-.08.17-1.17.17-1.85.5-10.31,11.24-15.05,18.76-10.79Z"/>
          <path class="st4" d="M43.98,7.85c-.4,2-2.63,4.75-6.11,4.75s-5.71,2.73-6.1,4.74c-.48,1.75.27,3.62-1.89,7.89-.1-.54-2.71-3.83-4.82-4.73.14-.08.17-1.17.17-1.85.5-10.31,11.24-15.05,18.75-10.79Z"/>
          <path class="st4" d="M62.9,29.92c-.4-2-2.63-4.75-6.11-4.75s-5.71-2.73-6.11-4.73c-.48-1.75.27-3.62-1.89-7.89-.1.54-2.42,3.58-4.81,4.73.14.08.17,1.17.17,1.85.5,10.31,11.24,15.05,18.75,10.79Z"/>
          <path class="st4" d="M6.11,7.85C5.71,9.86,3.48,12.6,0,12.6s-5.71,2.73-6.1,4.74c-.48,1.75.27,3.62-1.89,7.89-.1-.54-2.71-3.83-4.82-4.73.14-.08.17-1.17.17-1.85C-12.15,8.33-1.4,3.59,6.11,7.85Z"/>
          <path class="st4" d="M25.03,29.92c-.4-2-2.63-4.75-6.11-4.75s-5.71-2.73-6.1-4.73c-.48-1.75.27-3.62-1.89-7.89-.1.54-2.54,3.71-4.82,4.73.14.08.17,1.17.17,1.85.5,10.31,11.24,15.05,18.75,10.79Z"/>
        </g>
        <g>
          <path class="st4" d="M-6.11,42.52c.4-2,2.63-4.75,6.11-4.75s5.71-2.73,6.11-4.74c.48-1.75-.27-3.62,1.89-7.89.11.54,2.63,3.77,4.82,4.73-.14.08-.17,1.17-.17,1.85-.5,10.31-11.24,15.05-18.75,10.79Z"/>
          <path class="st4" d="M-6.11,67.71c.4-2,2.63-4.75,6.11-4.75s5.71-2.73,6.11-4.73c.48-1.75-.27-3.62,1.89-7.89.11.54,2.63,3.77,4.82,4.73-.14.08-.17,1.17-.17,1.85-.5,10.31-11.24,15.05-18.75,10.79Z"/>
          <path class="st4" d="M-6.11,17.34C-5.71,15.33-3.48,12.59,0,12.59s5.71-2.73,6.11-4.73c.48-1.75-.27-3.62,1.89-7.89.11.54,2.63,3.77,4.82,4.73-.14.08-.17,1.17-.17,1.85-.5,10.31-11.24,15.05-18.75,10.79Z"/>
          <path class="st4" d="M6.11,33.04c-.4,2-2.63,4.75-6.11,4.75s-5.71,2.73-6.1,4.74c-.48,1.75.27,3.62-1.89,7.89-.1-.54-2.71-3.83-4.81-4.73.14-.08.17-1.17.17-1.85.5-10.31,11.24-15.05,18.76-10.79Z"/>
          <path class="st4" d="M6.11,58.23c-.4,2-2.63,4.75-6.11,4.75s-5.71,2.73-6.1,4.73c-.48,1.75.27,3.62-1.89,7.89-.1-.54-2.71-3.83-4.81-4.73.14-.08.17-1.17.17-1.85.5-10.31,11.24-15.05,18.76-10.79Z"/>
          <path class="st4" d="M6.11,7.85C5.71,9.86,3.48,12.6,0,12.6s-5.71,2.73-6.1,4.74c-.48,1.75.27,3.62-1.89,7.89-.1-.54-2.71-3.83-4.81-4.73.14-.08.17-1.17.17-1.85C-12.15,8.33-1.4,3.59,6.11,7.85Z"/>
        </g>
        <path class="st4" d="M81.86-17.33c-.4,2-2.63,4.75-6.11,4.75s-5.71,2.73-6.1,4.73c-.48,1.75.27,3.62-1.89,7.89-.1-.54-2.71-3.83-4.82-4.73.14-.08.17-1.17.17-1.85.5-10.31,11.24-15.05,18.75-10.79Z"/>
        <g>
          <path class="st4" d="M50.69-4.75C51.09-2.75,53.32,0,56.8,0s5.71,2.73,6.1,4.73c.48,1.75-.27,3.62,1.89,7.89.34-.71,2.15-3.27,4.82-4.73-.14-.08-.17-1.17-.17-1.85-.5-10.31-11.24-15.05-18.75-10.79Z"/>
          <path class="st4" d="M12.81-4.75C13.21-2.75,15.44,0,18.92,0s5.71,2.73,6.1,4.73c.48,1.75-.27,3.62,1.89,7.89.33-.71,2.15-3.27,4.81-4.73-.14-.08-.17-1.17-.17-1.85-.5-10.31-11.24-15.05-18.75-10.79Z"/>
          <path class="st4" d="M81.86-17.33c-.4,2-2.63,4.75-6.11,4.75s-5.71,2.73-6.1,4.73c-.48,1.75.27,3.62-1.89,7.89-.1-.54-2.71-3.83-4.81-4.73.14-.08.17-1.17.17-1.85.5-10.31,11.24-15.05,18.76-10.79Z"/>
          <path class="st4" d="M43.98-17.33c-.4,2-2.63,4.75-6.11,4.75s-5.71,2.73-6.1,4.73c-.48,1.75.27,3.62-1.89,7.89-.1-.54-2.71-3.83-4.82-4.73.14-.08.17-1.17.17-1.85.5-10.31,11.24-15.05,18.75-10.79Z"/>
          <path class="st4" d="M62.9,4.73C62.5,2.73,60.27-.02,56.79-.02s-5.71-2.73-6.11-4.74c-.48-1.75.27-3.62-1.89-7.89-.1.54-2.61,3.83-4.81,4.73.14.08.17,1.17.17,1.85.5,10.31,11.24,15.05,18.75,10.79Z"/>
          <path class="st4" d="M6.11-17.33C5.71-15.33,3.48-12.59,0-12.59s-5.71,2.73-6.1,4.73c-.48,1.75.27,3.62-1.89,7.89-.1-.54-2.71-3.83-4.82-4.73.14-.08.17-1.17.17-1.85.5-10.31,11.24-15.05,18.75-10.79Z"/>
          <path class="st4" d="M25.03,4.73C24.63,2.73,22.4-.02,18.91-.02s-5.71-2.73-6.1-4.74c-.48-1.75.27-3.62-1.89-7.89-.1.54-2.54,3.71-4.82,4.73.14.08.17,1.17.17,1.85.5,10.31,11.24,15.05,18.75,10.79Z"/>
        </g>
        <path class="st4" d="M6.11-17.33C5.71-15.33,3.48-12.59,0-12.59s-5.71,2.73-6.1,4.73c-.48,1.75.27,3.62-1.89,7.89-.1-.54-2.71-3.83-4.81-4.73.14-.08.17-1.17.17-1.85.5-10.31,11.24-15.05,18.76-10.79Z"/>
      </g>
    </pattern>
  </defs>
  <g id="Background">
    <g>
      <rect class="st10" width="1920" height="849.41"/>
      <path class="st9" d="M1880,40v769.41H40V40h1840M1920,0H0v849.41h1920V0h0Z"/>
    </g>
  </g>
  <g id="Wheels">
    <path id="Rear_Tire" class="st3" d="M1378.69,623.06c0,45.38-36.79,82.17-82.17,82.17s-82.17-36.79-82.17-82.17,36.79-82.17,82.17-82.17,82.17,36.79,82.17,82.17ZM1296.52,575.76c-26.12,0-47.3,21.18-47.3,47.3s21.18,47.3,47.3,47.3,47.3-21.18,47.3-47.3-21.18-47.3-47.3-47.3Z"/>
    <path id="Front_Tire" class="st3" d="M354.55,623.06c0,45.38-36.79,82.17-82.17,82.17s-82.17-36.79-82.17-82.17,36.79-82.17,82.17-82.17,82.17,36.79,82.17,82.17ZM272.38,575.76c-26.12,0-47.3,21.18-47.3,47.3s21.18,47.3,47.3,47.3,47.3-21.18,47.3-47.3-21.18-47.3-47.3-47.3Z"/>
  </g>
  <g id="TP_12">
    <g id="Bus">
      <polygon id="Mirror" class="st0" points="394.98 214.85 391.19 209.09 308.49 263.53 308.49 258.65 286.06 258.65 286.06 356.06 308.49 356.06 308.49 271.8 394.98 214.85"/>
      <path id="Bus_body" class="st5" d="M1724.28,188.58H330.03v42.48h12v157.46c-56.71,10.84-139.37,24.92-183.43,32.32-17.49,2.94-30.3,18.07-30.3,35.81v166.42h51.72c0-51.9,42.07-93.97,93.97-93.97s93.97,42.07,93.97,93.97h832.76c0-51.9,42.07-93.97,93.97-93.97s93.97,42.07,93.97,93.97h374.07V227.02c0-21.23-17.21-38.45-38.45-38.45Z"/>
      <rect id="Front_Bumper" class="st0" x="104.17" y="551.75" width="44.83" height="71.31"/>
      <rect id="Rear_Bumper" class="st0" x="1724.86" y="551.75" width="44.83" height="71.31"/>
      <text class="st7" transform="translate(919.65 481.65)"><tspan x="0" y="0">SCHOOL BUS</tspan></text>
    </g>
    <g id="Stripes">
      <rect class="st2" x="366.24" y="396.58" width="134.48" height="134.48"/>
      <rect class="st0" x="366.24" y="217.27" width="1396.48" height="9.76"/>
      <rect class="st0" x="516.1" y="415.54" width="1231.17" height="18.97"/>
      <rect class="st0" x="516.1" y="483.65" width="1231.17" height="18.97"/>
      <rect class="st0" x="516.1" y="551.75" width="682.9" height="18.97"/>
      <rect class="st0" x="1385.21" y="551.75" width="362.07" height="18.97"/>
    </g>
    <g id="Stop_Sign">
      <g>
        <path class="st6" d="M571.53,401c7.21,0,14.43-.03,21.64.04.78,0,1.76.4,2.31.95,10.28,10.19,20.51,20.43,30.71,30.7.49.49.85,1.36.85,2.06.05,14.53.05,29.05,0,43.58,0,.65-.36,1.45-.82,1.92-10.28,10.34-20.58,20.64-30.92,30.91-.46.46-1.28.77-1.94.78-14.53.04-29.05.04-43.58,0-.65,0-1.47-.33-1.93-.79-10.34-10.27-20.65-20.58-30.92-30.91-.46-.46-.8-1.28-.8-1.93-.04-14.53-.05-29.05,0-43.58,0-.69.38-1.55.87-2.05,10.2-10.27,20.43-20.5,30.71-30.7.55-.55,1.53-.92,2.32-.93,7.16-.07,14.33-.04,21.49-.04Z"/>
        <path class="st8" d="M571.53,404.26c6.79,0,13.58-.03,20.37.04.74,0,1.65.38,2.17.9,9.67,9.59,19.31,19.23,28.91,28.89.46.46.8,1.28.8,1.94.05,13.67.04,27.34,0,41.02,0,.61-.34,1.37-.77,1.81-9.67,9.73-19.37,19.43-29.1,29.1-.43.43-1.21.73-1.82.73-13.67.04-27.34.04-41.02,0-.61,0-1.39-.31-1.82-.74-9.73-9.67-19.43-19.37-29.1-29.1-.43-.44-.75-1.21-.75-1.82-.04-13.67-.04-27.34,0-41.02,0-.65.36-1.46.82-1.93,9.6-9.66,19.23-19.3,28.91-28.89.52-.52,1.44-.87,2.18-.88,6.74-.07,13.48-.04,20.23-.04Z"/>
      </g>
      <g>
        <path class="st6" d="M531.18,462.08c1.51.77,3.83,1.55,6.23,1.55,2.58,0,3.94-1.07,3.94-2.69s-1.18-2.43-4.16-3.5c-4.13-1.44-6.82-3.72-6.82-7.33,0-4.24,3.54-7.48,9.4-7.48,2.8,0,4.87.59,6.34,1.25l-1.25,4.53c-1-.48-2.76-1.18-5.2-1.18s-3.61,1.11-3.61,2.4c0,1.58,1.4,2.29,4.61,3.5,4.39,1.62,6.45,3.91,6.45,7.41,0,4.16-3.21,7.7-10.03,7.7-2.84,0-5.64-.74-7.04-1.51l1.14-4.64Z"/>
        <path class="st6" d="M555.69,447.74h-6.67v-4.72h19.09v4.72h-6.78v20.12h-5.64v-20.12Z"/>
        <path class="st6" d="M592.77,455.19c0,8.15-4.94,13.08-12.2,13.08s-11.68-5.57-11.68-12.64c0-7.45,4.75-13.01,12.09-13.01s11.79,5.71,11.79,12.57ZM574.82,455.52c0,4.87,2.29,8.29,6.04,8.29s5.97-3.61,5.97-8.44c0-4.46-2.14-8.29-6.01-8.29s-6.01,3.61-6.01,8.44Z"/>
        <path class="st6" d="M596.46,443.36c1.73-.29,4.16-.52,7.59-.52s5.93.66,7.59,1.99c1.58,1.25,2.65,3.32,2.65,5.75s-.81,4.5-2.29,5.9c-1.92,1.81-4.75,2.62-8.07,2.62-.74,0-1.4-.04-1.92-.11v8.88h-5.57v-24.51ZM602.02,454.64c.48.11,1.07.15,1.88.15,2.99,0,4.83-1.51,4.83-4.05,0-2.29-1.58-3.65-4.39-3.65-1.14,0-1.92.11-2.32.22v7.33Z"/>
      </g>
    </g>
    <g id="Windows">
      <rect id="Rear_Window" class="st0" x="1612.79" y="246.58" width="134.48" height="137.93"/>
      <rect class="st0" x="1434.71" y="246.58" width="134.48" height="137.93"/>
      <rect class="st0" x="1256.64" y="246.58" width="134.48" height="137.93"/>
      <rect class="st0" x="1078.56" y="246.58" width="134.48" height="137.93"/>
      <rect class="st0" x="900.48" y="246.58" width="134.48" height="137.93"/>
      <rect class="st0" x="722.4" y="246.58" width="134.48" height="137.93"/>
      <rect class="st0" x="544.32" y="246.58" width="134.48" height="137.93"/>
      <rect id="Front_Window" class="st0" x="366.24" y="246.58" width="134.48" height="137.93"/>
    </g>
  </g>
</svg>